<svg width="40" height="34" viewBox="0 0 40 34" fill="none" xmlns="http://www.w3.org/2000/svg">
<path d="M17.2652 26.5409C16.6467 23.8262 16.3766 19.8951 16.462 14.8564C16.4719 14.7876 16.4729 14.718 16.4659 14.6491C16.5109 12.3146 16.6313 9.77783 16.8245 7.10512C16.9587 5.24655 16.2866 3.47401 14.9326 2.11386C13.5952 0.770504 11.708 0 9.755 0C9.61101 0 9.46468 0.00403359 9.31757 0.0121009C6.41468 0.177261 3.74632 1.52282 1.99671 3.70371C0.246399 5.88534 -0.394382 8.66556 0.238353 11.3317L4.54992 29.4793C4.55398 29.4964 4.55851 29.5134 4.56367 29.5303C5.36195 32.162 7.95226 34 10.863 34C11.5362 34 12.2049 33.902 12.8497 33.7091C16.0795 32.7455 17.9777 29.6637 17.2652 26.5409ZM12.2623 31.9766C11.8072 32.1128 11.3365 32.1818 10.8631 32.1818C8.82226 32.1818 7.00484 30.898 6.43406 29.0566L2.1289 10.9361C1.6196 8.79061 2.13531 6.55317 3.54382 4.79757C4.95171 3.04263 7.09898 1.95985 9.4325 1.82703C9.53992 1.82124 9.64836 1.81823 9.755 1.81823C11.1736 1.81823 12.5451 2.37847 13.5176 3.35535C14.5014 4.3436 14.9895 5.63173 14.892 6.98228C14.7484 8.97249 14.6447 10.8885 14.5816 12.7052L9.92609 8.68918L9.69515 6.26663C9.6475 5.76653 9.17617 5.39719 8.64422 5.4423C8.11148 5.48703 7.71828 5.92876 7.76609 6.42886L7.99539 8.83336L6.19156 10.9131C5.85398 11.3025 5.91632 11.875 6.33101 12.192C6.7457 12.5089 7.35578 12.4505 7.69343 12.0611L9.09679 10.4432L14.5208 15.1221C14.4488 20.1584 14.7346 24.1268 15.3712 26.9217C15.8739 29.1246 14.5377 31.2977 12.2623 31.9766Z" fill="#B8B8B8"/>
<path d="M38.0033 3.7037C36.2538 1.52281 33.5853 0.177249 30.6802 0.0119421C30.5354 0.00402141 30.3891 6.10352e-05 30.2451 6.10352e-05C28.2921 6.10352e-05 26.4049 0.770491 25.0676 2.11385C23.7134 3.474 23.0415 5.24654 23.1756 7.10518C23.369 9.78024 23.4894 12.3193 23.5343 14.6556C23.5291 14.7153 23.5303 14.7755 23.5377 14.8352C23.6241 19.8841 23.3542 23.8224 22.7349 26.5408C22.0223 29.6638 23.9206 32.7455 27.1496 33.7088C27.7951 33.902 28.4638 34 29.137 34C32.0477 34 34.638 32.162 35.4363 29.5302C35.4414 29.5133 35.4459 29.4964 35.45 29.4793L39.7616 11.3315C40.3945 8.66555 39.7536 5.88533 38.0033 3.7037ZM33.5661 29.0565C32.9952 30.898 31.1779 32.1818 29.137 32.1818C28.6636 32.1818 28.1929 32.1127 27.7371 31.9764C25.4624 31.2978 24.1262 29.1247 24.6289 26.9214C25.2655 24.1269 25.5513 20.1585 25.4794 15.1225L30.9034 10.4431L36.465 16.8551L33.5661 29.0565ZM37.8712 10.9359L37.002 14.5945L32.0047 8.83313L32.234 6.42863C32.2817 5.92852 31.8885 5.48688 31.3559 5.44206C30.8232 5.39667 30.3527 5.76637 30.3049 6.2664L30.074 8.68902L25.4185 12.7055C25.3554 10.8885 25.2519 8.97248 25.1081 6.98219C25.0106 5.63165 25.4987 4.34359 26.4825 3.35527C27.455 2.37846 28.8263 1.81814 30.2451 1.81814C30.3517 1.81814 30.4602 1.82115 30.5652 1.82687C32.9012 1.95976 35.0484 3.04262 36.4563 4.79748C37.8648 6.55316 38.3805 8.79059 37.8712 10.9359Z" fill="#B8B8B8"/>
<path d="M4.88128 12.9162C4.34675 12.9162 3.91284 13.3235 3.91284 13.8253C3.91284 14.3281 4.34667 14.7345 4.88128 14.7345C5.41589 14.7345 5.84972 14.3281 5.84972 13.8253C5.84964 13.3236 5.41581 12.9162 4.88128 12.9162Z" fill="#B8B8B8"/>
</svg>
