<svg width="37" height="36" viewBox="0 0 37 36" fill="none" xmlns="http://www.w3.org/2000/svg">
<path d="M21.6246 27.9461C21.6582 28.1277 21.7813 28.2914 21.9671 28.4009C22.1186 28.4903 22.3017 28.5378 22.4884 28.5378C22.5304 28.5378 22.5727 28.5355 22.6149 28.5305L35.2281 27.0661C35.5303 27.0311 35.7873 26.8734 35.9059 26.6503C36.0247 26.4273 35.9877 26.1714 35.8085 25.9754L19.6596 8.30621C19.4239 8.04814 18.9961 7.95126 18.6238 8.07114C18.2515 8.19112 18.0305 8.4972 18.0888 8.81244L21.6246 27.9461ZM33.549 25.8622L23.2257 27.0608L20.332 11.4006L33.549 25.8622Z" fill="#B8B8B8"/>
<path d="M36.6435 29.8414C36.4781 29.6073 36.157 29.4696 35.8189 29.4894C35.7414 29.4939 28.8802 29.8901 21.3029 30.5912L20.1797 24.5108H20.1794L15.7593 0.591729C15.7119 0.335154 15.4876 0.121164 15.178 0.0372716C14.8684 -0.0467274 14.5257 0.0137434 14.2901 0.193559L13.8674 0.51614C3.548 8.39235 -1.37335 19.8023 0.702858 31.0376C0.766388 31.3818 1.13937 31.6294 1.56555 31.6294C1.60759 31.6294 1.6503 31.627 1.69315 31.6221L19.3499 29.5721L19.5687 30.7561C19.135 30.7985 18.7004 30.8417 18.2661 30.8859C2.2128 32.5211 0 33.9776 0 35.308C0 35.6902 0.39085 36 0.873033 36H24.2679C24.3098 36 24.3517 35.9977 24.3932 35.9929L25.6795 35.845C30.0452 35.3431 34.0225 33.425 36.5916 30.5827C36.7887 30.3644 36.8089 30.0755 36.6435 29.8414ZM2.31286 30.1512C0.684994 19.874 5.1157 9.51276 14.2804 2.13842L19.0968 28.2026L2.31286 30.1512ZM25.4288 34.4753L24.2048 34.616H3.35244C4.17995 34.3622 5.42664 34.0569 7.30298 33.7219C10.2432 33.1972 14.2286 32.6824 19.1483 32.1921C25.0501 31.6039 30.9054 31.1919 33.8974 30.9972C31.6606 32.8604 28.6643 34.1033 25.4288 34.4753Z" fill="#B8B8B8"/>
</svg>
