<svg width="50" height="33" viewBox="0 0 50 33" fill="none" xmlns="http://www.w3.org/2000/svg">
<path d="M11.1122 24.9819C9.64436 24.9819 8.17875 24.4826 7.054 23.4889L6.9875 23.4304C5.47983 22.0992 3.07968 22.0634 1.52271 23.3491C1.15767 23.6509 0.585223 23.6333 0.243928 23.3113C-0.0973666 22.9892 -0.0781419 22.4834 0.286675 22.1823C2.56062 20.3048 6.06562 20.3565 8.26628 22.3001L8.33278 22.3586C9.84045 23.69 12.2404 23.7258 13.7973 22.4399L14.1099 22.1818C16.3834 20.3044 19.8886 20.3563 22.0891 22.3001L22.1556 22.3586C23.6635 23.69 26.0634 23.7256 27.6204 22.4399L27.9325 22.182C30.206 20.3048 33.7112 20.3563 35.9121 22.2999L35.9795 22.3594C37.486 23.69 39.8864 23.7256 41.4431 22.4397L41.7553 22.1818C44.0292 20.3044 47.534 20.3561 49.7349 22.2997C50.0884 22.6117 50.0884 23.1176 49.7349 23.4296C49.3818 23.7418 48.8089 23.7416 48.4556 23.4296C46.9482 22.0986 44.548 22.0632 42.9913 23.3487L42.6792 23.6065C40.4052 25.484 36.9005 25.4323 34.6996 23.4887L34.6322 23.4292C33.1256 22.0986 30.7253 22.063 29.1685 23.3489L28.8564 23.6067C26.5824 25.4842 23.0777 25.4325 20.8768 23.4889L20.8103 23.4304C19.3026 22.099 16.9027 22.0634 15.3457 23.3491L15.0332 23.6071C13.922 24.5249 12.5158 24.9817 11.1122 24.9819ZM11.112 17.563C9.64436 17.563 8.17875 17.0639 7.054 16.0702L6.9875 16.0117C5.47983 14.6803 3.07968 14.6448 1.52271 15.9306C1.15767 16.232 0.585223 16.2149 0.243928 15.8927C-0.0973666 15.5705 -0.0781419 15.0648 0.286675 14.7636C2.56062 12.8861 6.06585 12.938 8.26628 14.8814L8.33278 14.94C9.41343 15.8945 10.9532 16.1833 12.3109 15.7964V3.97906C12.3109 2.66602 11.1014 1.59786 9.6145 1.59786H9.54167C8.05481 1.59786 6.84524 2.66602 6.84524 3.97906V4.53672C6.84524 4.97792 6.44016 5.33564 5.94055 5.33564C5.44093 5.33564 5.03586 4.97792 5.03586 4.53672V3.97906C5.03586 1.78501 7.05716 0 9.54167 0H9.6145C12.099 0 14.1203 1.78501 14.1203 3.97906V10.1917H23.9181V3.97906C23.9181 2.66602 22.7086 1.59786 21.2217 1.59786H21.1489C19.6622 1.59786 18.4524 2.66602 18.4524 3.97906V4.53672C18.4524 4.97792 18.0474 5.33564 17.5477 5.33564C17.0481 5.33564 16.6431 4.97792 16.6431 4.53672V3.97906C16.6431 1.78501 18.6644 0 21.1489 0H21.2217C23.7062 0 25.7275 1.78501 25.7275 3.97906V15.8909C26.4128 15.7657 27.0694 15.4762 27.6204 15.0211L27.9325 14.7634C30.206 12.8857 33.7114 12.9376 35.9121 14.8812L35.9795 14.9408C37.486 16.2712 39.8864 16.3069 41.4431 15.0211L41.7553 14.7634C44.0292 12.8857 47.534 12.9378 49.7349 14.8812C50.0884 15.1934 50.0884 15.6991 49.7349 16.0111C49.3818 16.3231 48.8085 16.3231 48.4556 16.0111C46.9482 14.6799 44.5478 14.6446 42.9913 15.9304L42.6792 16.1881C40.405 18.0656 36.9 18.0136 34.6996 16.0702L34.6322 16.0107C33.1256 14.6801 30.7253 14.6446 29.1685 15.9304L28.8564 16.1883C26.582 18.0658 23.0772 18.0138 20.8768 16.0704L20.8103 16.0119C19.3026 14.6805 16.9027 14.6448 15.3457 15.9306L15.0332 16.1887C13.9217 17.1063 12.5158 17.563 11.112 17.563ZM18.0311 13.3886C19.4987 13.3886 20.9643 13.8878 22.0891 14.8814L22.1556 14.94C22.6638 15.3888 23.2735 15.6904 23.9181 15.8435V11.7896H14.1203V14.7546C15.2299 13.8428 16.6315 13.3886 18.0311 13.3886Z" fill="#B8B8B8"/>
<path fill-rule="evenodd" clip-rule="evenodd" d="M7.054 31.507C8.17875 32.5007 9.64436 33 11.1122 33C12.5158 32.9998 13.922 32.543 15.0332 31.6252L15.3457 31.3672C16.9027 30.0815 19.3026 30.1171 20.8103 31.4485L20.8768 31.507C23.0777 33.4506 26.5824 33.5023 28.8564 31.6248L29.1685 31.367C30.7253 30.0811 33.1256 30.1167 34.6322 31.4473L34.6996 31.5068C36.9005 33.4504 40.4052 33.5021 42.6792 31.6246L42.9913 31.3668C44.548 30.0813 46.9482 30.1167 48.4556 31.4477C48.8089 31.7597 49.3818 31.7599 49.7349 31.4477C50.0884 31.1357 50.0884 30.6298 49.7349 30.3178C47.534 28.3742 44.0292 28.3225 41.7553 30.1999L41.4431 30.4578C39.8864 31.7437 37.486 31.7081 35.9795 30.3775L35.9121 30.318C33.7112 28.3744 30.206 28.3229 27.9325 30.2001L27.6204 30.458C26.0634 31.7437 23.6635 31.7081 22.1556 30.3767L22.0891 30.3182C19.8886 28.3744 16.3834 28.3225 14.1099 30.1999L13.7973 30.458C12.2404 31.7439 9.84045 31.7081 8.33278 30.3767L8.26628 30.3182C6.06562 28.3746 2.56062 28.3229 0.286675 30.2003C-0.0781419 30.5015 -0.0973666 31.0073 0.243928 31.3294C0.585223 31.6514 1.15767 31.669 1.52271 31.3672C3.07968 30.0815 5.47983 30.1173 6.9875 31.4485L7.054 31.507Z" fill="#B8B8B8"/>
</svg>
