<svg width="45" height="34" viewBox="0 0 45 34" fill="none" xmlns="http://www.w3.org/2000/svg">
<path d="M36.7236 9.21528C36.4014 9.18457 36.1633 8.91502 36.1963 8.61135C36.2292 8.3111 36.5186 8.08931 36.8445 8.12002C37.5696 8.19167 38.2617 8.39981 38.8953 8.75466C39.2029 8.92526 39.4922 9.12998 39.7668 9.36882C39.8914 9.08562 40.0452 8.8229 40.2209 8.57723C40.6128 8.03813 41.1218 7.59457 41.7224 7.27043C42.0044 7.11689 42.3669 7.20901 42.5281 7.47174C42.6929 7.73446 42.594 8.07225 42.312 8.22238C41.8652 8.46122 41.488 8.79219 41.1987 9.1914C40.9167 9.58378 40.7153 10.0444 40.6165 10.5596C40.5945 10.7063 40.5139 10.8428 40.3748 10.9349C40.1111 11.1124 39.7412 11.0544 39.5508 10.8087C39.1809 10.3242 38.7524 9.95569 38.2873 9.69638C37.8076 9.42683 37.2803 9.26987 36.7236 9.21528ZM13.5461 13.2381V31.4617H15.8166L18.4607 28.7525H17.0581V27.0977H21.4014L16.5015 22.0377L17.8198 20.9322L20.7861 23.9928V23.8733H28.0481C28.3667 23.8733 28.6487 24.0303 28.8062 24.2657L30.9521 27.0943H34.9841C35.2515 27.0943 35.4932 27.2035 35.6543 27.3809L40.0708 31.4617H45V33.1165H0.256348V31.4617H12.1655V13.2381H0.692139C0.311279 13.2381 0 12.9515 0 12.5932C0 12.5727 0 12.5522 0.00366211 12.5284C0.032959 9.31423 1.47217 6.4106 3.78296 4.30538C6.06445 2.23428 9.19189 0.934296 12.6489 0.889939C12.7148 0.869467 12.7881 0.859231 12.8613 0.859231C12.9346 0.859231 13.0078 0.869467 13.0774 0.889939C16.5161 0.947944 19.6216 2.24451 21.8921 4.30879C24.2175 6.42766 25.6604 9.35518 25.6714 12.5932C25.6714 12.948 25.3638 13.2346 24.9829 13.2346V13.2381H13.5461ZM18.2153 31.4651H37.5513L34.6179 28.756H20.8594L18.2153 31.4651ZM23.7927 27.0977H28.7769L27.5903 25.5316H22.2766L23.7927 27.0977ZM30.7324 2.71196C30.3552 2.75632 30.011 2.51065 29.9597 2.15921C29.9121 1.80777 30.1758 1.48704 30.553 1.43928C31.7468 1.29256 32.9004 1.42563 33.9441 1.85895C34.574 2.12168 35.1562 2.49018 35.6799 2.97469C35.9656 2.37758 36.3538 1.85213 36.8298 1.41198C37.6172 0.685218 38.6316 0.197298 39.7888 0.00963692C40.166 -0.0517795 40.5212 0.187062 40.5872 0.535089C40.6531 0.886528 40.3967 1.21749 40.0232 1.27891C39.1516 1.4188 38.3899 1.78389 37.8076 2.32299C37.229 2.85527 36.8188 3.56838 36.6394 4.41115H36.6357C36.6028 4.57152 36.5039 4.72164 36.3464 4.82059C36.0315 5.01849 35.603 4.94343 35.3906 4.64999C34.834 3.8857 34.1492 3.35342 33.3838 3.0361C32.5818 2.6949 31.6809 2.59595 30.7324 2.71196ZM20.929 5.23004C19.9915 4.37703 18.8892 3.66733 17.6733 3.15211C18.1421 3.78334 18.5376 4.50327 18.8599 5.29828C19.6106 7.14418 19.9768 9.41318 20.0134 11.9517H24.2688C24.0857 9.33129 22.8442 6.97358 20.929 5.23004ZM14.8608 2.34005C14.4324 2.27181 13.9966 2.22404 13.5535 2.19675V11.9517H18.6365C18.6035 9.57013 18.2629 7.45468 17.5708 5.75208C16.9556 4.23372 16.062 3.05658 14.8608 2.34005ZM12.1692 2.19333C11.7334 2.21722 11.3013 2.26157 10.8801 2.3264C9.66431 3.04634 8.75976 4.23372 8.14087 5.77255C7.45605 7.46832 7.11914 9.58037 7.08618 11.9483H12.1692V2.19333ZM8.07495 3.1214C6.82983 3.64344 5.7019 4.35997 4.74609 5.23345C2.83081 6.97699 1.58936 9.3347 1.40625 11.9517H5.71289C5.74585 9.42683 6.11206 7.16465 6.85547 5.32216C7.1814 4.50327 7.58789 3.76287 8.07495 3.1214Z" fill="#3E3E3E"/>
</svg>
