<svg width="50" height="32" viewBox="0 0 50 32" fill="none" xmlns="http://www.w3.org/2000/svg">
<path d="M47.3489 21.9325C43.4729 7.39617 35.9612 0 25.0122 0C14.0392 0 6.52748 7.39617 2.65146 21.9158L0.031385 30.9482C-0.00455398 31.0714 -0.00970351 31.2006 0.0163275 31.326C0.0423586 31.4513 0.0988859 31.5695 0.181619 31.6717C0.267138 31.7734 0.376478 31.8558 0.501394 31.9126C0.626311 31.9695 0.763542 31.9994 0.902739 32H49.0977C49.2361 32.0001 49.3727 31.9707 49.4969 31.9141C49.6211 31.8574 49.7295 31.7751 49.8138 31.6733C49.898 31.5716 49.9559 31.4533 49.9828 31.3275C50.0097 31.2018 50.005 31.072 49.969 30.9482L47.3489 21.9325ZM17.4164 7.70226C20.0725 6.19409 22.6085 5.42609 25.0122 5.42609C27.4159 5.42609 29.9038 6.17739 32.5359 7.65217C33.6033 8.25673 34.5489 9.02884 35.3302 9.93391V22.4946C35.3287 23.7615 34.7841 24.976 33.8162 25.8714C32.8483 26.7667 31.5362 27.2696 30.1682 27.2696H14.0271L16.3467 8.40904C16.6855 8.15114 17.0429 7.91499 17.4164 7.70226ZM12.2123 27.2696H10.4456L12.3265 14.976C12.579 13.3436 13.2486 11.7905 14.2795 10.4459L12.2123 27.2696ZM25.1384 30.3304H9.98886L10.1992 28.9391H30.1682C32.0139 28.9377 33.7836 28.2584 35.0892 27.0503C36.3949 25.8422 37.1299 24.2039 37.133 22.4946V13.0337C37.371 13.6959 37.5381 14.3781 37.6318 15.0706L39.2243 26.5294C39.29 27.0041 39.2458 27.4863 39.0947 27.9439C38.9436 28.4016 38.6891 28.8242 38.3481 29.1837C38.007 29.5433 37.5873 29.8315 37.1167 30.0292C36.6461 30.2269 36.1354 30.3296 35.6187 30.3304H25.1384ZM39.663 30.3304C39.6805 30.317 39.6966 30.3021 39.7111 30.2859C40.222 29.748 40.6032 29.1153 40.8291 28.4301C41.055 27.7448 41.1205 27.0229 41.0211 26.3123L39.4346 14.8536C39.2064 13.0943 38.5517 11.4057 37.5194 9.91382C36.4871 8.42198 35.1039 7.16559 33.4734 6.23861C30.5588 4.56904 27.7104 3.75652 25.0122 3.75652C22.314 3.75652 19.4175 4.608 16.4729 6.27757C15.9352 6.58709 15.423 6.93308 14.9406 7.3127C12.5509 9.19916 10.9938 11.8336 10.5658 14.7144L8.16202 30.297H2.07456L4.40018 22.3332C8.05385 8.62609 14.9826 1.66957 25.0122 1.66957C35.0418 1.66957 41.9586 8.62609 45.6182 22.3499L47.9258 30.3304H39.663Z" fill="#B8B8B8"/>
</svg>
