<svg width="153" height="153" viewBox="0 0 153 153" fill="none" xmlns="http://www.w3.org/2000/svg">
<path d="M87.3481 8.36568L88.2154 9.17846L153 72.8233L146.052 79.8905L137.131 71.1283L137.136 138.307C137.136 143.53 133.092 147.812 127.962 148.189L127.224 148.219H28.1042C22.8806 148.219 18.5986 144.175 18.217 139.045L18.1922 138.307L18.1873 71.1333L9.27642 79.8905L2.32812 72.8233L67.0434 9.24289C72.5595 3.61288 81.4555 3.30066 87.3481 8.36568ZM74.5319 15.8195L74.0562 16.2507L28.0993 61.3948L28.1042 138.307L52.8792 138.302L52.8842 88.7469C52.8842 83.5233 56.9283 79.2413 62.0577 78.8597L62.7962 78.8349H92.5321C97.7557 78.8349 102.038 82.879 102.419 88.0084L102.444 88.7469L102.439 138.302L127.224 138.307L127.219 61.3898L81.1333 16.1119C79.3293 14.3426 76.5143 14.2336 74.5319 15.8195ZM92.5321 88.7469H62.7962L62.7912 138.302H92.5271L92.5321 88.7469Z" fill="#222222"/>
</svg>
