<svg width="27" height="29" viewBox="0 0 27 29" fill="none" xmlns="http://www.w3.org/2000/svg">
<path d="M8.81657 0.150391C6.07438 0.150391 3.86419 2.14977 3.86419 4.63039C3.86419 7.11102 6.07438 9.11039 8.81657 9.11039C10.6519 9.11039 12.2358 8.20695 13.0919 6.87039H20.5785C20.7429 6.87477 20.9049 6.81789 21.0234 6.71289L22.2615 5.59289C22.3776 5.4857 22.4405 5.33914 22.4356 5.19039V4.07039C22.4405 3.92164 22.3776 3.77508 22.2615 3.66789L21.0234 2.54789C20.9049 2.44289 20.7429 2.38602 20.5785 2.39039H19.3404C19.1759 2.38602 19.0139 2.44289 18.8954 2.54789L18.4118 2.98539L17.9282 2.54789C17.8097 2.44289 17.6477 2.38602 17.4832 2.39039H16.2451C16.1218 2.3882 16.0009 2.41883 15.8969 2.47789L15.3166 2.82789L14.7362 2.47789C14.6322 2.41883 14.5113 2.3882 14.388 2.39039H13.0919C12.2358 1.05383 10.6519 0.150391 8.81657 0.150391ZM8.81657 1.27039C10.9034 1.27039 12.5309 2.74258 12.5309 4.63039C12.5309 6.5182 10.9034 7.99039 8.81657 7.99039C6.7297 7.99039 5.10228 6.5182 5.10228 4.63039C5.10228 2.74258 6.7297 1.27039 8.81657 1.27039ZM7.57847 3.51039C6.89414 3.51039 6.34038 4.01133 6.34038 4.63039C6.34038 5.24945 6.89414 5.75039 7.57847 5.75039C8.26281 5.75039 8.81657 5.24945 8.81657 4.63039C8.81657 4.01133 8.26281 3.51039 7.57847 3.51039ZM13.6142 3.51039H14.1945L14.9684 3.98289C15.1787 4.11195 15.4544 4.11195 15.6648 3.98289L16.4386 3.51039H17.2124L17.9669 4.19289C18.0829 4.30227 18.245 4.36352 18.4118 4.36352C18.5787 4.36352 18.7407 4.30227 18.8567 4.19289L19.6112 3.51039H20.3076L21.1975 4.31539V4.94539L20.3076 5.75039H13.6142C13.7158 5.39164 13.769 5.01758 13.769 4.63039C13.769 4.2432 13.7158 3.86914 13.6142 3.51039ZM7.38502 10.2304C6.14693 10.2304 5.01523 10.9173 4.54127 11.9629C4.53885 11.9716 4.52434 11.9716 4.52193 11.9804L2.70347 15.8304H2.00705C0.989002 15.8304 0.149902 16.5895 0.149902 17.5104C0.149902 18.4313 0.989002 19.1904 2.00705 19.1904V26.4704C2.00705 27.3913 2.84615 28.1504 3.86419 28.1504H5.72133C6.73937 28.1504 7.57847 27.3913 7.57847 26.4704V25.9104H18.7213V26.4704C18.7213 27.3913 19.5604 28.1504 20.5785 28.1504H22.4356C23.4537 28.1504 24.2928 27.3913 24.2928 26.4704V19.1904C25.3108 19.1904 26.1499 18.4313 26.1499 17.5104C26.1499 16.5895 25.3108 15.8304 24.2928 15.8304H23.5963L21.7779 11.9804C21.7755 11.9716 21.761 11.9716 21.7585 11.9629C21.2846 10.9173 20.1529 10.2304 18.9148 10.2304H7.38502ZM7.38502 11.3504H18.9148C19.6475 11.3504 20.3415 11.7791 20.6172 12.4004L20.6365 12.4179L22.3776 16.1104L21.7779 16.4779V16.4954C21.2652 16.8191 20.7163 16.9504 20.0755 16.9504H6.22431C5.5835 16.9504 5.03457 16.8191 4.52193 16.4954V16.4779L3.92222 16.1104L5.6633 12.4179L5.68264 12.4004C5.95831 11.7791 6.65232 11.3504 7.38502 11.3504ZM2.00705 16.9504H3.05169L3.8255 17.4229V17.4054H3.84484C4.56787 17.8582 5.38521 18.0704 6.22431 18.0704H20.0755C20.9146 18.0704 21.7319 17.8582 22.455 17.4054C22.4598 17.4032 22.4695 17.4076 22.4743 17.4054V17.4229L23.2481 16.9504H24.2928C24.6361 16.9504 24.9118 17.1998 24.9118 17.5104C24.9118 17.821 24.6361 18.0704 24.2928 18.0704H23.0547V24.7904H3.24514V18.0704H2.00705C1.66367 18.0704 1.388 17.821 1.388 17.5104C1.388 17.1998 1.66367 16.9504 2.00705 16.9504ZM6.6499 19.7504C5.46017 19.7504 4.48324 20.6341 4.48324 21.7104C4.48324 22.7866 5.46017 23.6704 6.6499 23.6704C7.83963 23.6704 8.81657 22.7866 8.81657 21.7104C8.81657 20.6341 7.83963 19.7504 6.6499 19.7504ZM19.6499 19.7504C18.4602 19.7504 17.4832 20.6341 17.4832 21.7104C17.4832 22.7866 18.4602 23.6704 19.6499 23.6704C20.8396 23.6704 21.8166 22.7866 21.8166 21.7104C21.8166 20.6341 20.8396 19.7504 19.6499 19.7504ZM6.6499 20.8704C7.19157 20.8704 7.57847 21.2204 7.57847 21.7104C7.57847 22.2004 7.19157 22.5504 6.6499 22.5504C6.10824 22.5504 5.72133 22.2004 5.72133 21.7104C5.72133 21.2204 6.10824 20.8704 6.6499 20.8704ZM19.6499 20.8704C20.1916 20.8704 20.5785 21.2204 20.5785 21.7104C20.5785 22.2004 20.1916 22.5504 19.6499 22.5504C19.1082 22.5504 18.7213 22.2004 18.7213 21.7104C18.7213 21.2204 19.1082 20.8704 19.6499 20.8704ZM3.24514 25.9104H6.34038V26.4704C6.34038 26.781 6.06471 27.0304 5.72133 27.0304H3.86419C3.52081 27.0304 3.24514 26.781 3.24514 26.4704V25.9104ZM19.9594 25.9104H23.0547V26.4704C23.0547 26.781 22.779 27.0304 22.4356 27.0304H20.5785C20.2351 27.0304 19.9594 26.781 19.9594 26.4704V25.9104Z" fill="#3E3E3E" stroke="black" stroke-width="0.3"/>
</svg>
