<svg width="27" height="23" viewBox="0 0 27 23" fill="none" xmlns="http://www.w3.org/2000/svg">
<path d="M0.979492 18.2154C0.594336 18.2154 0.299805 17.9311 0.299805 17.5592V0.956055C0.299805 0.58418 0.594336 0.299805 0.979492 0.299805H25.9693C26.3545 0.299805 26.649 0.58418 26.649 0.956055V17.5592C26.649 17.9967 26.3318 18.2154 26.0146 18.2154H0.979492ZM1.65918 17.0123H25.335V1.65605H1.65918V17.0123Z" fill="#3E3E3E" stroke="#3E3E3E" stroke-width="0.6"/>
<path d="M19.7616 15.2188C19.3765 15.2188 19.0819 14.9344 19.0819 14.5625C19.0819 14.1906 19.3765 13.9062 19.7616 13.9062H22.4124C22.7976 13.9062 23.0921 14.1906 23.0921 14.5625C23.0921 14.9344 22.7296 15.2188 22.4124 15.2188H19.7616ZM13.4858 21.2781C13.1007 21.2781 12.8062 20.9937 12.8062 20.6219V17.8438C12.8062 17.4719 13.1007 17.1875 13.4858 17.1875C13.871 17.1875 14.1655 17.4719 14.1655 17.8438V20.6656C14.1429 20.9937 13.8483 21.2781 13.4858 21.2781Z" fill="#3E3E3E" stroke="#3E3E3E" stroke-width="0.6"/>
<path d="M7.93506 21.8467C7.5499 21.8467 7.25537 21.5623 7.25537 21.1904C7.25537 20.8186 7.5499 20.5342 7.93506 20.5342H19.0593C19.4444 20.5342 19.739 20.8186 19.739 21.1904C19.739 21.5623 19.3765 21.8467 19.0593 21.8467H7.93506Z" fill="#3E3E3E" stroke="#3E3E3E" stroke-width="0.6"/>
</svg>
