<svg width="135" height="129" viewBox="0 0 135 129" fill="none" xmlns="http://www.w3.org/2000/svg">
<path d="M42.1875 28.5792C42.1875 32.5274 38.4099 35.7281 33.75 35.7281C29.0901 35.7281 25.3125 32.5274 25.3125 28.5792C25.3125 24.631 29.0901 21.4303 33.75 21.4303C38.4099 21.4303 42.1875 24.631 42.1875 28.5792Z" fill="black"/>
<path d="M42.1875 49.9986C42.1875 53.9468 38.4099 57.1475 33.75 57.1475C29.0901 57.1475 25.3125 53.9468 25.3125 49.9986C25.3125 46.0504 29.0901 42.8497 33.75 42.8497C38.4099 42.8497 42.1875 46.0504 42.1875 49.9986Z" fill="black"/>
<path d="M42.1875 71.4184C42.1875 75.3666 38.4099 78.5673 33.75 78.5673C29.0901 78.5673 25.3125 75.3666 25.3125 71.4184C25.3125 67.4702 29.0901 64.2695 33.75 64.2695C38.4099 64.2695 42.1875 67.4702 42.1875 71.4184Z" fill="black"/>
<path d="M67.4998 28.5792C67.4998 32.5274 63.7222 35.7281 59.0623 35.7281C54.4024 35.7281 50.6248 32.5274 50.6248 28.5792C50.6248 24.631 54.4024 21.4303 59.0623 21.4303C63.7222 21.4303 67.4998 24.631 67.4998 28.5792Z" fill="black"/>
<path d="M67.4998 49.9986C67.4998 53.9468 63.7222 57.1475 59.0623 57.1475C54.4024 57.1475 50.6248 53.9468 50.6248 49.9986C50.6248 46.0504 54.4024 42.8497 59.0623 42.8497C63.7222 42.8497 67.4998 46.0504 67.4998 49.9986Z" fill="black"/>
<path d="M67.4998 71.4184C67.4998 75.3666 63.7222 78.5673 59.0623 78.5673C54.4024 78.5673 50.6248 75.3666 50.6248 71.4184C50.6248 67.4702 54.4024 64.2695 59.0623 64.2695C63.7222 64.2695 67.4998 67.4702 67.4998 71.4184Z" fill="black"/>
<path d="M92.8123 28.5792C92.8123 32.5274 89.0347 35.7281 84.3748 35.7281C79.7149 35.7281 75.9373 32.5274 75.9373 28.5792C75.9373 24.631 79.7149 21.4303 84.3748 21.4303C89.0347 21.4303 92.8123 24.631 92.8123 28.5792Z" fill="black"/>
<path d="M92.8123 49.9986C92.8123 53.9468 89.0347 57.1475 84.3748 57.1475C79.7149 57.1475 75.9373 53.9468 75.9373 49.9986C75.9373 46.0504 79.7149 42.8497 84.3748 42.8497C89.0347 42.8497 92.8123 46.0504 92.8123 49.9986Z" fill="black"/>
<path d="M92.8123 71.4184C92.8123 75.3666 89.0347 78.5673 84.3748 78.5673C79.7149 78.5673 75.9373 75.3666 75.9373 71.4184C75.9373 67.4702 79.7149 64.2695 84.3748 64.2695C89.0347 64.2695 92.8123 67.4702 92.8123 71.4184Z" fill="black"/>
<path fill-rule="evenodd" clip-rule="evenodd" d="M14.7656 0C6.6108 0 0 5.59689 0 12.501V116.081C0 122.985 6.61079 128.582 14.7656 128.582H44.2969C47.7918 128.582 50.625 126.183 50.625 123.224V103.58C50.625 99.6345 54.4026 96.4363 59.0625 96.4363C63.7224 96.4363 67.5 99.6345 67.5 103.58V123.224C67.5 126.183 70.3332 128.582 73.8281 128.582H120.234C128.389 128.582 135 122.985 135 116.081V72.6074C135 69.2919 133.444 66.1122 130.675 63.7678L118.125 53.1424L118.125 12.501C118.125 5.59689 111.514 0 103.359 0H14.7656ZM118.125 117.867L118.125 68.2959L121.726 71.3446C122.122 71.6795 122.344 72.1337 122.344 72.6074V116.081C122.344 117.067 121.399 117.867 120.234 117.867H118.125ZM105.469 117.867H80.1563V103.58C80.1563 93.7167 70.7123 85.7212 59.0625 85.7212C47.4128 85.7212 37.9688 93.7167 37.9688 103.58V117.867H14.7656C13.6007 117.867 12.6563 117.067 12.6563 116.081V12.501C12.6563 11.5147 13.6007 10.7151 14.7656 10.7151H103.359C104.524 10.7151 105.469 11.5147 105.469 12.501L105.469 117.867Z" fill="black"/>
</svg>
