<svg width="147" height="168" viewBox="0 0 147 168" fill="none" xmlns="http://www.w3.org/2000/svg">
<path fill-rule="evenodd" clip-rule="evenodd" d="M73.15 0C75.2286 0 77.2221 0.825734 78.6919 2.29555L107.429 31.0331C110.49 34.0938 110.49 39.0562 107.429 42.117C104.369 45.1777 99.4063 45.1777 96.3456 42.117L80.9875 26.7589L80.9875 117.537C80.9875 121.865 77.4785 125.374 73.15 125.374C68.8215 125.374 65.3125 121.865 65.3125 117.537L65.3125 26.7589L49.9544 42.117C46.8937 45.1777 41.9313 45.1777 38.8706 42.117C35.8098 39.0562 35.8098 34.0938 38.8705 31.0331L67.608 2.29555C69.0779 0.825734 71.0714 0 73.15 0ZM104.5 60.065C104.5 55.7365 108.009 52.2275 112.338 52.2275H117.562C133.434 52.2275 146.3 65.0937 146.3 80.965V138.44C146.3 154.311 133.434 167.177 117.563 167.177L28.7375 167.177C12.8662 167.177 6.22869e-06 154.311 4.98295e-06 138.44L0 80.965C-1.24574e-06 65.0937 12.8662 52.2275 28.7375 52.2275L33.9625 52.2275C38.291 52.2275 41.8 55.7365 41.8 60.065C41.8 64.3935 38.291 67.9025 33.9625 67.9025H28.7375C21.5233 67.9025 15.675 73.7508 15.675 80.965L15.675 138.44C15.675 145.654 21.5233 151.502 28.7375 151.502L117.563 151.502C124.777 151.502 130.625 145.654 130.625 138.44V80.965C130.625 73.7508 124.777 67.9025 117.562 67.9025H112.338C108.009 67.9025 104.5 64.3935 104.5 60.065Z" fill="black"/>
</svg>
