<svg width="27" height="21" viewBox="0 0 27 21" fill="none" xmlns="http://www.w3.org/2000/svg">
<path d="M21.3672 11.5272C21.094 11.5281 20.8302 11.4236 20.6291 11.2343C18.6288 9.40108 16.0381 8.38728 13.353 8.38728C10.668 8.38728 8.07721 9.40108 6.07697 11.2343C5.96625 11.3356 5.83709 11.4136 5.69687 11.4638C5.55665 11.5141 5.40813 11.5355 5.25983 11.5269C5.1115 11.5183 4.9663 11.4799 4.83251 11.4137C4.69873 11.3476 4.579 11.2552 4.48016 11.1418C4.28569 10.9091 4.18785 10.6081 4.20757 10.3026C4.22728 9.99724 4.36296 9.71188 4.58561 9.50761C6.99217 7.291 10.1153 6.06445 13.353 6.06445C16.5908 6.06445 19.7139 7.291 22.1204 9.50761C22.3431 9.71188 22.4788 9.99724 22.4984 10.3026C22.5181 10.6081 22.4204 10.9091 22.2259 11.1418C22.1158 11.262 21.9828 11.3584 21.8351 11.4247C21.6876 11.4908 21.5284 11.5258 21.3672 11.5272Z" fill="black"/>
<path d="M25.3592 7.22534C25.0745 7.22391 24.8006 7.11399 24.5909 6.91704C21.5457 3.94631 17.4999 2.28911 13.2927 2.28911C9.08555 2.28911 5.0398 3.94631 1.9945 6.91704C1.89081 7.04321 1.76196 7.14524 1.61658 7.21626C1.47121 7.28732 1.31267 7.32571 1.15161 7.32894C0.990538 7.33203 0.830676 7.29996 0.682729 7.23475C0.534783 7.16946 0.402187 7.0726 0.29383 6.9506C0.185458 6.82863 0.10384 6.68433 0.0544439 6.52742C0.00503309 6.37049 -0.0110107 6.20458 0.00739786 6.04079C0.0257913 5.877 0.0782 5.71914 0.161099 5.57778C0.244012 5.43642 0.355488 5.31485 0.488069 5.22121C3.94649 1.86856 8.529 0 13.2927 0C18.0563 0 22.6389 1.86856 26.0974 5.22121C26.2622 5.37741 26.3777 5.58035 26.4292 5.8041C26.4809 6.02784 26.4661 6.26222 26.3869 6.47733C26.3076 6.69244 26.1676 6.8785 25.9845 7.01175C25.8015 7.14498 25.5838 7.21936 25.3592 7.22534Z" fill="black"/>
<path d="M9.3606 15.9203C9.18519 15.9203 9.01221 15.8785 8.85533 15.7982C8.69844 15.718 8.56198 15.6015 8.45674 15.4578C8.36576 15.3371 8.29934 15.1989 8.26139 15.0516C8.22344 14.9042 8.21475 14.7505 8.23581 14.5997C8.25687 14.4488 8.30728 14.3037 8.38403 14.1731C8.46078 14.0424 8.56235 13.9289 8.68271 13.839C10.0125 12.7976 11.6404 12.2334 13.315 12.2334C14.9895 12.2334 16.6174 12.7976 17.9472 13.839C18.0659 13.9302 18.166 14.0444 18.2416 14.175C18.3171 14.3056 18.3668 14.4503 18.3879 14.6006C18.4088 14.7509 18.4007 14.9039 18.3638 15.0511C18.327 15.1982 18.2622 15.3363 18.1732 15.4578C17.9911 15.6998 17.7237 15.8594 17.4283 15.9026C17.1329 15.9457 16.8325 15.8691 16.5915 15.689C15.6496 14.9552 14.4987 14.5576 13.315 14.5576C12.1312 14.5576 10.9802 14.9552 10.0385 15.689C9.84147 15.8363 9.60454 15.9171 9.3606 15.9203Z" fill="black"/>
<path d="M13.3076 20.7148C13.0079 20.7148 12.7205 20.5931 12.5087 20.3761C12.2967 20.1594 12.1777 19.8652 12.1777 19.5586C12.1777 19.252 12.2967 18.9578 12.5087 18.741C12.7205 18.5241 13.0079 18.4023 13.3076 18.4023C13.6072 18.4023 13.8946 18.5241 14.1064 18.741C14.3184 18.9578 14.4374 19.252 14.4374 19.5586C14.4374 19.8652 14.3184 20.1594 14.1064 20.3761C13.8946 20.5931 13.6072 20.7148 13.3076 20.7148Z" fill="black"/>
</svg>
