<svg width="24" height="24" viewBox="0 0 24 24" fill="none" xmlns="http://www.w3.org/2000/svg">
<path fill-rule="evenodd" clip-rule="evenodd" d="M17.7702 0.15675C19.1546 0.438408 20.436 1.0914 21.4765 2.04552C22.5171 2.99963 23.2774 4.2188 23.6758 5.57194C24.0449 6.81264 24.0998 8.12531 23.8355 9.39342C23.4533 11.1308 22.4916 12.6873 21.1078 13.808C19.7241 14.9287 18.0001 15.5474 16.2182 15.5626C15.4663 15.5626 14.7178 15.4547 13.9984 15.237L12.625 16.8445L11.9744 17.1443H10.3005V19.7149L9.44217 20.5717H6.86703V23.1422L6.00865 23.999H0.858379L0 23.1422V19.1888L0.250647 18.5838L8.7898 10.06C8.54746 9.28088 8.43154 8.46805 8.44645 7.65234C8.46209 6.5111 8.72976 5.38735 9.23038 4.36121C9.73099 3.33507 10.4522 2.4318 11.3426 1.7158C12.2331 0.999791 13.2708 0.488682 14.3818 0.218902C15.4928 -0.0508781 16.6497 -0.0709709 17.7702 0.15675ZM20.0328 12.4952C21.1113 11.6234 21.8613 10.412 22.1599 9.05926L22.1668 9.06783C22.3795 8.0787 22.3412 7.0522 22.0554 6.08159C21.7697 5.11099 21.2455 4.22704 20.5304 3.51008C19.8154 2.79311 18.9323 2.26586 17.9612 1.97621C16.9902 1.68657 15.962 1.64372 14.9701 1.85157C13.6324 2.14794 12.4325 2.88254 11.5614 3.9384C10.6903 4.99426 10.1981 6.31067 10.1632 7.67804C10.146 8.45948 10.2834 9.23405 10.5735 9.95722L10.3847 10.8877L1.71676 19.5435V22.2854H5.15027V19.7149L6.00865 18.858H8.58379V16.2875L9.44217 15.4307H11.5795L13.0834 13.6896L14.0465 13.4497C14.7407 13.7205 15.4797 13.8588 16.2251 13.8575C17.6123 13.8469 18.9548 13.3666 20.0328 12.4952ZM18.5942 7.81342C18.7296 7.62672 18.8258 7.41468 18.8772 7.18999C18.9285 6.96529 18.934 6.73257 18.8931 6.50573C18.8523 6.2789 18.7661 6.06261 18.6396 5.86982C18.5131 5.67703 18.3489 5.51168 18.1569 5.38368C17.9649 5.25568 17.749 5.16766 17.5221 5.12487C17.2953 5.08209 17.0621 5.08542 16.8365 5.13467C16.611 5.18392 16.3977 5.27808 16.2095 5.41152C16.0212 5.54495 15.8619 5.71492 15.7409 5.91125C15.5083 6.28892 15.4314 6.74188 15.5263 7.17497C15.6212 7.60807 15.8806 7.98759 16.25 8.23382C16.6193 8.48004 17.0699 8.57381 17.507 8.49542C17.9441 8.41702 18.3338 8.17258 18.5942 7.81342Z" fill="#3E3E3E"/>
</svg>
