<svg width="20" height="27" viewBox="0 0 20 27" fill="none" xmlns="http://www.w3.org/2000/svg">
<path d="M16.6698 14.6779C15.8183 16.4036 14.6645 18.1229 13.4848 19.6666C12.3656 21.122 11.169 22.5161 9.90002 23.8429C8.63103 22.5161 7.43439 21.122 6.31527 19.6666C5.13552 18.1229 3.98177 16.4036 3.13027 14.6779C2.26902 12.9343 1.77502 11.3011 1.77502 9.90039C1.77502 7.74551 2.63105 5.67888 4.15478 4.15515C5.67851 2.63141 7.74514 1.77539 9.90002 1.77539C12.0549 1.77539 14.1215 2.63141 15.6453 4.15515C17.169 5.67888 18.025 7.74551 18.025 9.90039C18.025 11.3011 17.5294 12.9343 16.6698 14.6779ZM9.90002 26.1504C9.90002 26.1504 19.65 16.9106 19.65 9.90039C19.65 7.31453 18.6228 4.83458 16.7943 3.0061C14.9658 1.17762 12.4859 0.150391 9.90002 0.150391C7.31416 0.150391 4.83421 1.17762 3.00573 3.0061C1.17725 4.83458 0.150024 7.31453 0.150024 9.90039C0.150024 16.9106 9.90002 26.1504 9.90002 26.1504Z" fill="#3E3E3E" stroke="black" stroke-width="0.3"/>
<path d="M9.90002 13.1504C9.03807 13.1504 8.21142 12.808 7.60193 12.1985C6.99243 11.589 6.65002 10.7623 6.65002 9.90039C6.65002 9.03844 6.99243 8.21179 7.60193 7.60229C8.21142 6.9928 9.03807 6.65039 9.90002 6.65039C10.762 6.65039 11.5886 6.9928 12.1981 7.60229C12.8076 8.21179 13.15 9.03844 13.15 9.90039C13.15 10.7623 12.8076 11.589 12.1981 12.1985C11.5886 12.808 10.762 13.1504 9.90002 13.1504ZM9.90002 14.7754C11.193 14.7754 12.4329 14.2618 13.3472 13.3475C14.2614 12.4333 14.775 11.1933 14.775 9.90039C14.775 8.60746 14.2614 7.36749 13.3472 6.45325C12.4329 5.53901 11.193 5.02539 9.90002 5.02539C8.60709 5.02539 7.36712 5.53901 6.45288 6.45325C5.53864 7.36749 5.02502 8.60746 5.02502 9.90039C5.02502 11.1933 5.53864 12.4333 6.45288 13.3475C7.36712 14.2618 8.60709 14.7754 9.90002 14.7754Z" fill="#3E3E3E" stroke="black" stroke-width="0.3"/>
</svg>
