<svg width="185" height="26" viewBox="0 0 185 26" fill="none" xmlns="http://www.w3.org/2000/svg">
<path d="M6.57501 0.949999C8.42501 0.949999 10.0417 1.31667 11.425 2.05C12.8083 2.78333 13.875 3.81667 14.625 5.15C15.3917 6.46667 15.775 7.99167 15.775 9.725C15.775 11.4417 15.3917 12.9667 14.625 14.3C13.875 15.6333 12.8 16.6667 11.4 17.4C10.0167 18.1333 8.40835 18.5 6.57501 18.5H1.22748e-05V0.949999H6.57501ZM6.30001 14.8C7.91668 14.8 9.17501 14.3583 10.075 13.475C10.975 12.5917 11.425 11.3417 11.425 9.725C11.425 8.10833 10.975 6.85 10.075 5.95C9.17501 5.05 7.91668 4.6 6.30001 4.6H4.27501V14.8H6.30001ZM24.5141 18.7C23.1474 18.7 21.9141 18.4083 20.8141 17.825C19.7307 17.2417 18.8724 16.4083 18.2391 15.325C17.6224 14.2417 17.3141 12.975 17.3141 11.525C17.3141 10.0917 17.6307 8.83333 18.2641 7.75C18.8974 6.65 19.7641 5.80833 20.8641 5.225C21.9641 4.64167 23.1974 4.35 24.5641 4.35C25.9307 4.35 27.1641 4.64167 28.2641 5.225C29.3641 5.80833 30.2307 6.65 30.8641 7.75C31.4974 8.83333 31.8141 10.0917 31.8141 11.525C31.8141 12.9583 31.4891 14.225 30.8391 15.325C30.2057 16.4083 29.3307 17.2417 28.2141 17.825C27.1141 18.4083 25.8807 18.7 24.5141 18.7ZM24.5141 15C25.3307 15 26.0224 14.7 26.5891 14.1C27.1724 13.5 27.4641 12.6417 27.4641 11.525C27.4641 10.4083 27.1807 9.55 26.6141 8.95C26.0641 8.35 25.3807 8.05 24.5641 8.05C23.7307 8.05 23.0391 8.35 22.4891 8.95C21.9391 9.53333 21.6641 10.3917 21.6641 11.525C21.6641 12.6417 21.9307 13.5 22.4641 14.1C23.0141 14.7 23.6974 15 24.5141 15ZM38.357 6.525C38.7737 5.875 39.3487 5.35 40.082 4.95C40.8154 4.55 41.6737 4.35 42.657 4.35C43.807 4.35 44.8487 4.64167 45.782 5.225C46.7154 5.80833 47.4487 6.64167 47.982 7.725C48.532 8.80833 48.807 10.0667 48.807 11.5C48.807 12.9333 48.532 14.2 47.982 15.3C47.4487 16.3833 46.7154 17.225 45.782 17.825C44.8487 18.4083 43.807 18.7 42.657 18.7C41.6904 18.7 40.832 18.5 40.082 18.1C39.3487 17.7 38.7737 17.1833 38.357 16.55V25.15H34.082V4.55H38.357V6.525ZM44.457 11.5C44.457 10.4333 44.157 9.6 43.557 9C42.9737 8.38333 42.2487 8.075 41.382 8.075C40.532 8.075 39.807 8.38333 39.207 9C38.6237 9.61667 38.332 10.4583 38.332 11.525C38.332 12.5917 38.6237 13.4333 39.207 14.05C39.807 14.6667 40.532 14.975 41.382 14.975C42.232 14.975 42.957 14.6667 43.557 14.05C44.157 13.4167 44.457 12.5667 44.457 11.5ZM55.3248 6.525C55.7415 5.875 56.3165 5.35 57.0498 4.95C57.7832 4.55 58.6415 4.35 59.6248 4.35C60.7748 4.35 61.8165 4.64167 62.7498 5.225C63.6832 5.80833 64.4165 6.64167 64.9498 7.725C65.4998 8.80833 65.7748 10.0667 65.7748 11.5C65.7748 12.9333 65.4998 14.2 64.9498 15.3C64.4165 16.3833 63.6832 17.225 62.7498 17.825C61.8165 18.4083 60.7748 18.7 59.6248 18.7C58.6582 18.7 57.7998 18.5 57.0498 18.1C56.3165 17.7 55.7415 17.1833 55.3248 16.55V25.15H51.0498V4.55H55.3248V6.525ZM61.4248 11.5C61.4248 10.4333 61.1248 9.6 60.5248 9C59.9415 8.38333 59.2165 8.075 58.3498 8.075C57.4998 8.075 56.7748 8.38333 56.1748 9C55.5915 9.61667 55.2998 10.4583 55.2998 11.525C55.2998 12.5917 55.5915 13.4333 56.1748 14.05C56.7748 14.6667 57.4998 14.975 58.3498 14.975C59.1998 14.975 59.9248 14.6667 60.5248 14.05C61.1248 13.4167 61.4248 12.5667 61.4248 11.5ZM81.1676 11.3C81.1676 11.7 81.1426 12.1167 81.0926 12.55H71.4176C71.4843 13.4167 71.7593 14.0833 72.2426 14.55C72.7426 15 73.3509 15.225 74.0676 15.225C75.1343 15.225 75.8759 14.775 76.2926 13.875H80.8426C80.6093 14.7917 80.1843 15.6167 79.5676 16.35C78.9676 17.0833 78.2093 17.6583 77.2926 18.075C76.3759 18.4917 75.3509 18.7 74.2176 18.7C72.8509 18.7 71.6343 18.4083 70.5676 17.825C69.5009 17.2417 68.6676 16.4083 68.0676 15.325C67.4676 14.2417 67.1676 12.975 67.1676 11.525C67.1676 10.075 67.4593 8.80833 68.0426 7.725C68.6426 6.64167 69.4759 5.80833 70.5426 5.225C71.6093 4.64167 72.8343 4.35 74.2176 4.35C75.5676 4.35 76.7676 4.63333 77.8176 5.2C78.8676 5.76667 79.6843 6.575 80.2676 7.625C80.8676 8.675 81.1676 9.9 81.1676 11.3ZM76.7926 10.175C76.7926 9.44167 76.5426 8.85833 76.0426 8.425C75.5426 7.99167 74.9176 7.775 74.1676 7.775C73.4509 7.775 72.8426 7.98333 72.3426 8.4C71.8593 8.81667 71.5593 9.40833 71.4426 10.175H76.7926ZM87.6979 -2.38419e-07V18.5H83.4229V-2.38419e-07H87.6979ZM102.446 6.5C102.129 5.91667 101.671 5.475 101.071 5.175C100.488 4.85833 99.7959 4.7 98.9959 4.7C97.6126 4.7 96.5042 5.15833 95.6709 6.075C94.8376 6.975 94.4209 8.18333 94.4209 9.7C94.4209 11.3167 94.8542 12.5833 95.7209 13.5C96.6042 14.4 97.8126 14.85 99.3459 14.85C100.396 14.85 101.279 14.5833 101.996 14.05C102.729 13.5167 103.263 12.75 103.596 11.75H98.1709V8.6H107.471V12.575C107.154 13.6417 106.613 14.6333 105.846 15.55C105.096 16.4667 104.138 17.2083 102.971 17.775C101.804 18.3417 100.488 18.625 99.0209 18.625C97.2876 18.625 95.7376 18.25 94.3709 17.5C93.0209 16.7333 91.9626 15.675 91.1959 14.325C90.4459 12.975 90.0709 11.4333 90.0709 9.7C90.0709 7.96667 90.4459 6.425 91.1959 5.075C91.9626 3.70833 93.0209 2.65 94.3709 1.9C95.7209 1.13333 97.2626 0.749999 98.9959 0.749999C101.096 0.749999 102.863 1.25833 104.296 2.275C105.746 3.29167 106.704 4.7 107.171 6.5H102.446ZM108.989 11.5C108.989 10.0667 109.256 8.80833 109.789 7.725C110.339 6.64167 111.081 5.80833 112.014 5.225C112.947 4.64167 113.989 4.35 115.139 4.35C116.122 4.35 116.981 4.55 117.714 4.95C118.464 5.35 119.039 5.875 119.439 6.525V4.55H123.714V18.5H119.439V16.525C119.022 17.175 118.439 17.7 117.689 18.1C116.956 18.5 116.097 18.7 115.114 18.7C113.981 18.7 112.947 18.4083 112.014 17.825C111.081 17.225 110.339 16.3833 109.789 15.3C109.256 14.2 108.989 12.9333 108.989 11.5ZM119.439 11.525C119.439 10.4583 119.139 9.61667 118.539 9C117.956 8.38333 117.239 8.075 116.389 8.075C115.539 8.075 114.814 8.38333 114.214 9C113.631 9.6 113.339 10.4333 113.339 11.5C113.339 12.5667 113.631 13.4167 114.214 14.05C114.814 14.6667 115.539 14.975 116.389 14.975C117.239 14.975 117.956 14.6667 118.539 14.05C119.139 13.4333 119.439 12.5917 119.439 11.525ZM135.307 4.4C136.94 4.4 138.24 4.93333 139.207 6C140.19 7.05 140.682 8.5 140.682 10.35V18.5H136.432V10.925C136.432 9.99167 136.19 9.26667 135.707 8.75C135.223 8.23333 134.573 7.975 133.757 7.975C132.94 7.975 132.29 8.23333 131.807 8.75C131.323 9.26667 131.082 9.99167 131.082 10.925V18.5H126.807V4.55H131.082V6.4C131.515 5.78333 132.098 5.3 132.832 4.95C133.565 4.58333 134.39 4.4 135.307 4.4ZM148.952 4.35C149.936 4.35 150.794 4.55 151.527 4.95C152.277 5.35 152.852 5.875 153.252 6.525V4.55H157.527V18.475C157.527 19.7583 157.269 20.9167 156.752 21.95C156.252 23 155.477 23.8333 154.427 24.45C153.394 25.0667 152.102 25.375 150.552 25.375C148.486 25.375 146.811 24.8833 145.527 23.9C144.244 22.9333 143.511 21.6167 143.327 19.95H147.552C147.686 20.4833 148.002 20.9 148.502 21.2C149.002 21.5167 149.619 21.675 150.352 21.675C151.236 21.675 151.936 21.4167 152.452 20.9C152.986 20.4 153.252 19.5917 153.252 18.475V16.5C152.836 17.15 152.261 17.6833 151.527 18.1C150.794 18.5 149.936 18.7 148.952 18.7C147.802 18.7 146.761 18.4083 145.827 17.825C144.894 17.225 144.152 16.3833 143.602 15.3C143.069 14.2 142.802 12.9333 142.802 11.5C142.802 10.0667 143.069 8.80833 143.602 7.725C144.152 6.64167 144.894 5.80833 145.827 5.225C146.761 4.64167 147.802 4.35 148.952 4.35ZM153.252 11.525C153.252 10.4583 152.952 9.61667 152.352 9C151.769 8.38333 151.052 8.075 150.202 8.075C149.352 8.075 148.627 8.38333 148.027 9C147.444 9.6 147.152 10.4333 147.152 11.5C147.152 12.5667 147.444 13.4167 148.027 14.05C148.627 14.6667 149.352 14.975 150.202 14.975C151.052 14.975 151.769 14.6667 152.352 14.05C152.952 13.4333 153.252 12.5917 153.252 11.525ZM173.77 11.3C173.77 11.7 173.745 12.1167 173.695 12.55H164.02C164.087 13.4167 164.362 14.0833 164.845 14.55C165.345 15 165.953 15.225 166.67 15.225C167.737 15.225 168.478 14.775 168.895 13.875H173.445C173.212 14.7917 172.787 15.6167 172.17 16.35C171.57 17.0833 170.812 17.6583 169.895 18.075C168.978 18.4917 167.953 18.7 166.82 18.7C165.453 18.7 164.237 18.4083 163.17 17.825C162.103 17.2417 161.27 16.4083 160.67 15.325C160.07 14.2417 159.77 12.975 159.77 11.525C159.77 10.075 160.062 8.80833 160.645 7.725C161.245 6.64167 162.078 5.80833 163.145 5.225C164.212 4.64167 165.437 4.35 166.82 4.35C168.17 4.35 169.37 4.63333 170.42 5.2C171.47 5.76667 172.287 6.575 172.87 7.625C173.47 8.675 173.77 9.9 173.77 11.3ZM169.395 10.175C169.395 9.44167 169.145 8.85833 168.645 8.425C168.145 7.99167 167.52 7.775 166.77 7.775C166.053 7.775 165.445 7.98333 164.945 8.4C164.462 8.81667 164.162 9.40833 164.045 10.175H169.395ZM180.3 6.875C180.8 6.10833 181.425 5.50833 182.175 5.075C182.925 4.625 183.759 4.4 184.675 4.4V8.925H183.5C182.434 8.925 181.634 9.15833 181.1 9.625C180.567 10.075 180.3 10.875 180.3 12.025V18.5H176.025V4.55H180.3V6.875Z" fill="#FF385C"/>
</svg>
