<svg width="14" height="14" viewBox="0 0 14 14" fill="none" xmlns="http://www.w3.org/2000/svg">
<path fill-rule="evenodd" clip-rule="evenodd" d="M9.98351 10.1621L4.6866 7.15332L4.10327 8.14739L9.40018 11.1561L9.98351 10.1621Z" fill="#3E3E3E"/>
<path fill-rule="evenodd" clip-rule="evenodd" d="M9.98351 3.83777L4.6866 6.84653L4.10327 5.85246L9.40018 2.84375L9.98351 3.83777Z" fill="#3E3E3E"/>
<path fill-rule="evenodd" clip-rule="evenodd" d="M2.45 8.25991C3.15877 8.25991 3.73333 7.69458 3.73333 6.99733C3.73333 6.3 3.15877 5.73475 2.45 5.73475C1.74123 5.73475 1.16667 6.3 1.16667 6.99733C1.16667 7.69458 1.74123 8.25991 2.45 8.25991ZM2.45 9.40771C3.8031 9.40771 4.9 8.32847 4.9 6.99733C4.9 5.66611 3.8031 4.58691 2.45 4.58691C1.0969 4.58691 0 5.66611 0 6.99733C0 8.32847 1.0969 9.40771 2.45 9.40771Z" fill="#3E3E3E"/>
<path fill-rule="evenodd" clip-rule="evenodd" d="M11.5499 10.3275C12.2586 10.3275 12.8332 10.8927 12.8332 11.5901C12.8332 12.2874 12.2586 12.8526 11.5499 12.8526C10.8411 12.8526 10.2665 12.2874 10.2665 11.5901C10.2665 10.8927 10.8411 10.3275 11.5499 10.3275ZM11.5499 9.17969C12.9029 9.17969 13.9999 10.2588 13.9999 11.5901C13.9999 12.9213 12.9029 14.0004 11.5499 14.0004C10.1968 14.0004 9.09985 12.9213 9.09985 11.5901C9.09985 10.2588 10.1968 9.17969 11.5499 9.17969Z" fill="#3E3E3E"/>
<path fill-rule="evenodd" clip-rule="evenodd" d="M11.5499 3.67296C12.2586 3.67296 12.8332 3.10768 12.8332 2.41038C12.8332 1.71307 12.2586 1.1478 11.5499 1.1478C10.8411 1.1478 10.2665 1.71307 10.2665 2.41038C10.2665 3.10768 10.8411 3.67296 11.5499 3.67296ZM11.5499 4.82075C12.9029 4.82075 13.9999 3.74159 13.9999 2.41038C13.9999 1.07916 12.9029 0 11.5499 0C10.1968 0 9.09985 1.07916 9.09985 2.41038C9.09985 3.74159 10.1968 4.82075 11.5499 4.82075Z" fill="#3E3E3E"/>
</svg>
