<svg width="14" height="13" viewBox="0 0 14 13" fill="none" xmlns="http://www.w3.org/2000/svg">
<path d="M6.50621 10.6401C6.66344 10.5469 6.85902 10.5469 7.01625 10.6401L10.3824 12.6362C10.7621 12.8613 11.2259 12.52 11.1239 12.0906L10.237 8.35516C10.1936 8.17236 10.2563 7.98066 10.3994 7.85888L13.3457 5.35122C13.6844 5.06296 13.5064 4.50913 13.0632 4.47218L9.16753 4.14747C8.9836 4.13214 8.82307 4.01673 8.74996 3.84726L7.22033 0.301518C7.04665 -0.101074 6.47581 -0.101074 6.30213 0.301518L4.7725 3.84726C4.69939 4.01673 4.53886 4.13214 4.35493 4.14747L0.45926 4.47218C0.0160416 4.50913 -0.16197 5.06296 0.176722 5.35122L3.1231 7.85888C3.26618 7.98066 3.32891 8.17236 3.2855 8.35516L2.39852 12.0906C2.29656 12.52 2.76039 12.8613 3.14002 12.6362L6.50621 10.6401Z" fill="black"/>
</svg>
