<svg width="20" height="30" viewBox="0 0 20 30" fill="none" xmlns="http://www.w3.org/2000/svg">
<path d="M10 1C14.995 1 19 4.9396 19 9.74512C18.9999 14.5506 14.995 18.4902 10 18.4902C5.00497 18.4902 1.00008 14.5506 1 9.74512C1 4.9396 5.00493 1 10 1Z" stroke="#3E3E3E" stroke-width="2"/>
<path d="M15.6665 28.3486C15.6665 28.809 15.5128 28.9497 15.4829 28.9707C15.475 28.9763 15.3529 29.0659 15.0103 28.9014L11.0396 26.9971L11.0103 26.9834C10.6809 26.8385 10.3174 26.7862 10.0005 26.7861C9.6835 26.7861 9.31929 26.8384 8.98975 26.9834L8.96045 26.9971L4.98779 28.9014C4.65474 29.0538 4.53264 28.9679 4.52002 28.959C4.48638 28.935 4.33441 28.7925 4.3335 28.3379L4.36084 21.4883C6.07305 22.2906 7.98357 22.7373 10.0005 22.7373C12.018 22.7373 13.9411 22.2904 15.6665 21.4883V28.3486Z" stroke="#3E3E3E" stroke-width="2"/>
</svg>
