<svg width="9" height="14" viewBox="0 0 9 14" fill="none" xmlns="http://www.w3.org/2000/svg">
<path d="M4.5 9.09531C6.98527 9.09531 9 7.05929 9 4.54766C9 2.03606 6.98527 0 4.5 0C2.01472 0 0 2.03606 0 4.54766C0 7.05929 2.01472 9.09531 4.5 9.09531Z" fill="#292D32"/>
<path d="M7.02667 9.52147C7.24667 9.40253 7.5 9.57744 7.5 9.8363V13.2296C7.5 13.8592 7.08 14.1671 6.56 13.9082L4.77333 13.0197C4.62 12.9497 4.38 12.9497 4.22667 13.0197L2.44 13.9082C1.92 14.1601 1.5 13.8522 1.5 13.2226L1.51333 9.8363C1.51333 9.57744 1.77333 9.40952 1.98667 9.52147C2.74 9.92026 3.59333 10.1441 4.5 10.1441C5.40667 10.1441 6.26667 9.92026 7.02667 9.52147Z" fill="#292D32"/>
</svg>
