<svg width="27" height="29" viewBox="0 0 27 29" fill="none" xmlns="http://www.w3.org/2000/svg">
<path d="M8.81669 0.150391C6.0745 0.150391 3.86431 2.14977 3.86431 4.63039C3.86431 7.11102 6.0745 9.11039 8.81669 9.11039C10.6521 9.11039 12.236 8.20695 13.092 6.87039H20.5786C20.743 6.87477 20.905 6.81789 21.0235 6.71289L22.2616 5.59289C22.3777 5.4857 22.4406 5.33914 22.4357 5.19039V4.07039C22.4406 3.92164 22.3777 3.77508 22.2616 3.66789L21.0235 2.54789C20.905 2.44289 20.743 2.38602 20.5786 2.39039H19.3405C19.1761 2.38602 19.014 2.44289 18.8956 2.54789L18.4119 2.98539L17.9283 2.54789C17.8098 2.44289 17.6478 2.38602 17.4834 2.39039H16.2453C16.1219 2.3882 16.001 2.41883 15.897 2.47789L15.3167 2.82789L14.7363 2.47789C14.6324 2.41883 14.5114 2.3882 14.3881 2.39039H13.092C12.236 1.05383 10.6521 0.150391 8.81669 0.150391ZM8.81669 1.27039C10.9036 1.27039 12.531 2.74258 12.531 4.63039C12.531 6.5182 10.9036 7.99039 8.81669 7.99039C6.72982 7.99039 5.10241 6.5182 5.10241 4.63039C5.10241 2.74258 6.72982 1.27039 8.81669 1.27039ZM7.5786 3.51039C6.89426 3.51039 6.3405 4.01133 6.3405 4.63039C6.3405 5.24945 6.89426 5.75039 7.5786 5.75039C8.26293 5.75039 8.81669 5.24945 8.81669 4.63039C8.81669 4.01133 8.26293 3.51039 7.5786 3.51039ZM13.6143 3.51039H14.1947L14.9685 3.98289C15.1789 4.11195 15.4545 4.11195 15.6649 3.98289L16.4387 3.51039H17.2125L17.967 4.19289C18.0831 4.30227 18.2451 4.36352 18.4119 4.36352C18.5788 4.36352 18.7408 4.30227 18.8569 4.19289L19.6113 3.51039H20.3078L21.1976 4.31539V4.94539L20.3078 5.75039H13.6143C13.7159 5.39164 13.7691 5.01758 13.7691 4.63039C13.7691 4.2432 13.7159 3.86914 13.6143 3.51039ZM7.38514 10.2304C6.14705 10.2304 5.01535 10.9173 4.54139 11.9629C4.53898 11.9716 4.52447 11.9716 4.52205 11.9804L2.7036 15.8304H2.00717C0.989124 15.8304 0.150024 16.5895 0.150024 17.5104C0.150024 18.4313 0.989124 19.1904 2.00717 19.1904V26.4704C2.00717 27.3913 2.84627 28.1504 3.86431 28.1504H5.72145C6.7395 28.1504 7.5786 27.3913 7.5786 26.4704V25.9104H18.7215V26.4704C18.7215 27.3913 19.5606 28.1504 20.5786 28.1504H22.4357C23.4538 28.1504 24.2929 27.3913 24.2929 26.4704V19.1904C25.3109 19.1904 26.15 18.4313 26.15 17.5104C26.15 16.5895 25.3109 15.8304 24.2929 15.8304H23.5965L21.778 11.9804C21.7756 11.9716 21.7611 11.9716 21.7587 11.9629C21.2847 10.9173 20.153 10.2304 18.9149 10.2304H7.38514ZM7.38514 11.3504H18.9149C19.6476 11.3504 20.3416 11.7791 20.6173 12.4004L20.6366 12.4179L22.3777 16.1104L21.778 16.4779V16.4954C21.2654 16.8191 20.7164 16.9504 20.0756 16.9504H6.22443C5.58362 16.9504 5.0347 16.8191 4.52205 16.4954V16.4779L3.92235 16.1104L5.66342 12.4179L5.68276 12.4004C5.95843 11.7791 6.65244 11.3504 7.38514 11.3504ZM2.00717 16.9504H3.05181L3.82562 17.4229V17.4054H3.84496C4.56799 17.8582 5.38533 18.0704 6.22443 18.0704H20.0756C20.9147 18.0704 21.7321 17.8582 22.4551 17.4054C22.4599 17.4032 22.4696 17.4076 22.4744 17.4054V17.4229L23.2482 16.9504H24.2929C24.6363 16.9504 24.9119 17.1998 24.9119 17.5104C24.9119 17.821 24.6363 18.0704 24.2929 18.0704H23.0548V24.7904H3.24526V18.0704H2.00717C1.66379 18.0704 1.38812 17.821 1.38812 17.5104C1.38812 17.1998 1.66379 16.9504 2.00717 16.9504ZM6.65002 19.7504C5.46029 19.7504 4.48336 20.6341 4.48336 21.7104C4.48336 22.7866 5.46029 23.6704 6.65002 23.6704C7.83976 23.6704 8.81669 22.7866 8.81669 21.7104C8.81669 20.6341 7.83976 19.7504 6.65002 19.7504ZM19.65 19.7504C18.4603 19.7504 17.4834 20.6341 17.4834 21.7104C17.4834 22.7866 18.4603 23.6704 19.65 23.6704C20.8398 23.6704 21.8167 22.7866 21.8167 21.7104C21.8167 20.6341 20.8398 19.7504 19.65 19.7504ZM6.65002 20.8704C7.19169 20.8704 7.5786 21.2204 7.5786 21.7104C7.5786 22.2004 7.19169 22.5504 6.65002 22.5504C6.10836 22.5504 5.72145 22.2004 5.72145 21.7104C5.72145 21.2204 6.10836 20.8704 6.65002 20.8704ZM19.65 20.8704C20.1917 20.8704 20.5786 21.2204 20.5786 21.7104C20.5786 22.2004 20.1917 22.5504 19.65 22.5504C19.1084 22.5504 18.7215 22.2004 18.7215 21.7104C18.7215 21.2204 19.1084 20.8704 19.65 20.8704ZM3.24526 25.9104H6.3405V26.4704C6.3405 26.781 6.06483 27.0304 5.72145 27.0304H3.86431C3.52093 27.0304 3.24526 26.781 3.24526 26.4704V25.9104ZM19.9595 25.9104H23.0548V26.4704C23.0548 26.781 22.7791 27.0304 22.4357 27.0304H20.5786C20.2352 27.0304 19.9595 26.781 19.9595 26.4704V25.9104Z" fill="#3E3E3E" stroke="black" stroke-width="0.3"/>
</svg>
