<svg width="32" height="23" viewBox="0 0 32 23" fill="none" xmlns="http://www.w3.org/2000/svg">
<path d="M7.13958 16.9046C6.2295 16.9046 5.32083 16.5717 4.62348 15.9093L4.58225 15.8702C3.6475 14.9828 2.1594 14.9589 1.19408 15.8161C0.967754 16.0173 0.612839 16.0055 0.401236 15.7909C0.189633 15.5761 0.201552 15.239 0.427739 15.0382C1.83758 13.7865 4.01069 13.821 5.3751 15.1167L5.41632 15.1557C6.35108 16.0434 7.83903 16.0672 8.80435 15.2099L8.99815 15.0379C10.4077 13.7862 12.581 13.8209 13.9452 15.1167L13.9865 15.1557C14.9213 16.0434 16.4093 16.0671 17.3746 15.2099L17.5681 15.038C18.9777 13.7865 21.1509 13.8209 22.5155 15.1166L22.5573 15.1563C23.4913 16.0434 24.9796 16.0671 25.9447 15.2098L26.1383 15.0379C27.5481 13.7862 29.7211 13.8207 31.0856 15.1165C31.3048 15.3244 31.3048 15.6617 31.0856 15.8697C30.8667 16.0778 30.5115 16.0777 30.2925 15.8697C29.3579 14.9824 27.8698 14.9588 26.9046 15.8158L26.7111 15.9877C25.3012 17.2393 23.1283 17.2049 21.7637 15.9091L21.7219 15.8695C20.7879 14.9824 19.2997 14.9587 18.3345 15.8159L18.141 15.9878C16.7311 17.2395 14.5582 17.205 13.1936 15.9093L13.1524 15.8702C12.2176 14.9826 10.7297 14.9589 9.76435 15.8161L9.57056 15.9881C8.88162 16.5999 8.00983 16.9045 7.13958 16.9046ZM7.13943 11.9587C6.2295 11.9587 5.32083 11.6259 4.62348 10.9635L4.58225 10.9245C3.6475 10.0369 2.1594 10.0132 1.19408 10.8704C0.967754 11.0714 0.612839 11.0599 0.401236 10.8451C0.189633 10.6303 0.201552 10.2932 0.427739 10.0924C1.83758 8.84074 4.01083 8.87536 5.3751 10.171L5.41632 10.21C6.08633 10.8463 7.041 11.0389 7.88278 10.7809V2.90271C7.88278 2.02735 7.13284 1.31524 6.21099 1.31524H6.16584C5.24398 1.31524 4.49405 2.02735 4.49405 2.90271V3.27448C4.49405 3.56862 4.2429 3.8071 3.93314 3.8071C3.62338 3.8071 3.37223 3.56862 3.37223 3.27448V2.90271C3.37223 1.44 4.62544 0.25 6.16584 0.25H6.21099C7.75139 0.25 9.0046 1.44 9.0046 2.90271V7.04449H15.0792V2.90271C15.0792 2.02735 14.3293 1.31524 13.4075 1.31524H13.3623C12.4406 1.31524 11.6905 2.02735 11.6905 2.90271V3.27448C11.6905 3.56862 11.4394 3.8071 11.1296 3.8071C10.8198 3.8071 10.5687 3.56862 10.5687 3.27448V2.90271C10.5687 1.44 11.8219 0.25 13.3623 0.25H13.4075C14.9478 0.25 16.2011 1.44 16.2011 2.90271V10.8439C16.6259 10.7604 17.033 10.5675 17.3746 10.264L17.5681 10.0923C18.9777 8.84048 21.1511 8.8751 22.5155 10.1708L22.5573 10.2105C23.4913 11.0975 24.9796 11.1213 25.9447 10.264L26.1383 10.0923C27.5481 8.84048 29.7211 8.87523 31.0856 10.1708C31.3048 10.3789 31.3048 10.7161 31.0856 10.9241C30.8667 11.1321 30.5112 11.1321 30.2925 10.9241C29.3579 10.0366 27.8696 10.013 26.9046 10.8703L26.7111 11.0421C25.3011 12.2937 23.128 12.2591 21.7637 10.9635L21.7219 10.9238C20.7879 10.0367 19.2997 10.013 18.3345 10.8703L18.141 11.0422C16.7308 12.2938 14.5579 12.2592 13.1936 10.9636L13.1524 10.9246C12.2176 10.037 10.7297 10.0132 9.76435 10.8704L9.57056 11.0425C8.88148 11.6542 8.00983 11.9587 7.13943 11.9587ZM11.4293 9.17576C12.3392 9.17576 13.2479 9.50852 13.9452 10.171L13.9865 10.21C14.3015 10.5092 14.6796 10.7102 15.0792 10.8124V8.10973H9.0046V10.0864C9.69255 9.47856 10.5615 9.17576 11.4293 9.17576Z" fill="#3E3E3E" stroke="#3E3E3E" stroke-width="0.5"/>
<path d="M26.1387 20.3828C27.5485 19.1315 29.7215 19.1663 31.0859 20.4619C31.3048 20.6698 31.3048 21.0069 31.0859 21.2148C30.8671 21.4229 30.512 21.4227 30.293 21.2148C29.3584 20.3275 27.8695 20.3041 26.9043 21.1611L26.7109 21.333C25.3012 22.5845 23.1282 22.5504 21.7637 21.2549L21.7217 21.2148C20.7877 20.328 19.3001 20.3042 18.335 21.1611L18.1406 21.333C16.7308 22.5845 14.5579 22.5506 13.1934 21.2549L13.1523 21.2158C12.2177 20.3283 10.73 20.3043 9.76465 21.1611L9.57031 21.333C8.8814 21.9448 8.00987 22.2498 7.13965 22.25C6.22957 22.25 5.3204 21.9173 4.62305 21.2549L4.58203 21.2158C3.64736 20.3284 2.15967 20.3043 1.19434 21.1611C0.968009 21.3623 0.61297 21.3504 0.401367 21.1357C0.189987 20.921 0.201756 20.5845 0.427734 20.3838C1.83754 19.1322 4.01058 19.1663 5.375 20.4619L5.41602 20.501C6.35076 21.3886 7.83936 21.4129 8.80469 20.5557L8.99805 20.3828C10.4076 19.1313 12.5811 19.1661 13.9453 20.4619L13.9863 20.501C14.9212 21.3886 16.4097 21.4128 17.375 20.5557L17.5684 20.3838C18.9779 19.1323 21.1511 19.1662 22.5156 20.4619L22.5576 20.502C23.4917 21.3887 24.9793 21.4118 25.9443 20.5547L26.1387 20.3828Z" fill="#3E3E3E"/>
<path d="M26.1387 20.3828L26.3043 20.5701L26.3046 20.5698L26.1387 20.3828ZM31.0859 20.4619L31.2581 20.2807L31.2581 20.2806L31.0859 20.4619ZM31.0859 21.2148L30.9137 21.0336L30.9137 21.0337L31.0859 21.2148ZM30.293 21.2148L30.1208 21.3961L30.1209 21.3962L30.293 21.2148ZM26.9043 21.1611L26.7383 20.9742L26.7382 20.9743L26.9043 21.1611ZM26.7109 21.333L26.8769 21.52L26.877 21.5199L26.7109 21.333ZM21.7637 21.2549L21.5912 21.4358L21.5915 21.4362L21.7637 21.2549ZM21.7217 21.2148L21.8942 21.0339L21.8938 21.0336L21.7217 21.2148ZM18.335 21.1611L18.5006 21.3484L18.5009 21.3481L18.335 21.1611ZM18.1406 21.333L17.975 21.1457L17.9747 21.146L18.1406 21.333ZM13.1934 21.2549L13.0209 21.4359L13.0212 21.4362L13.1934 21.2549ZM13.1523 21.2158L13.3248 21.0348L13.3245 21.0345L13.1523 21.2158ZM9.76465 21.1611L9.93027 21.3484L9.93061 21.3481L9.76465 21.1611ZM9.57031 21.333L9.40469 21.1457L9.4043 21.1461L9.57031 21.333ZM7.13965 22.25V22.5H7.13969L7.13965 22.25ZM4.62305 21.2549L4.45063 21.4359L4.45086 21.4361L4.62305 21.2549ZM4.58203 21.2158L4.75445 21.0348L4.75416 21.0345L4.58203 21.2158ZM1.19434 21.1611L1.02837 20.9742L1.02824 20.9743L1.19434 21.1611ZM0.401367 21.1357L0.223203 21.3111L0.223333 21.3113L0.401367 21.1357ZM0.427734 20.3838L0.261758 20.1968L0.261694 20.1969L0.427734 20.3838ZM5.375 20.4619L5.54741 20.2809L5.54715 20.2806L5.375 20.4619ZM5.41602 20.501L5.2436 20.682L5.24387 20.6823L5.41602 20.501ZM8.80469 20.5557L8.97069 20.7426L8.9713 20.742L8.80469 20.5557ZM8.99805 20.3828L8.83206 20.1959L8.83143 20.1964L8.99805 20.3828ZM13.9453 20.4619L14.1177 20.2809L14.1175 20.2807L13.9453 20.4619ZM13.9863 20.501L13.8139 20.682L13.8142 20.6823L13.9863 20.501ZM17.375 20.5557L17.541 20.7426L17.5411 20.7425L17.375 20.5557ZM17.5684 20.3838L17.4024 20.1968L17.4023 20.1969L17.5684 20.3838ZM22.5156 20.4619L22.6881 20.281L22.6878 20.2806L22.5156 20.4619ZM22.5576 20.502L22.3851 20.6829L22.3855 20.6833L22.5576 20.502ZM25.9443 20.5547L25.7787 20.3674L25.7783 20.3678L25.9443 20.5547ZM26.1387 20.3828L26.3046 20.5698C27.6177 19.4044 29.6438 19.4372 30.9138 20.6432L31.0859 20.4619L31.2581 20.2806C29.7993 18.8954 27.4794 18.8587 25.9727 20.1958L26.1387 20.3828ZM31.0859 20.4619L30.9137 20.6432C31.0288 20.7525 31.0289 20.9242 30.9137 21.0336L31.0859 21.2148L31.2581 21.3961C31.5807 21.0896 31.5807 20.5872 31.2581 20.2807L31.0859 20.4619ZM31.0859 21.2148L30.9137 21.0337C30.7915 21.1498 30.5878 21.15 30.465 21.0335L30.293 21.2148L30.1209 21.3962C30.4362 21.6954 30.9427 21.696 31.2582 21.396L31.0859 21.2148ZM30.293 21.2148L30.4651 21.0335C29.436 20.0565 27.8003 20.0313 26.7383 20.9742L26.9043 21.1611L27.0703 21.3481C27.9387 20.577 29.2807 20.5985 30.1208 21.3961L30.293 21.2148ZM26.9043 21.1611L26.7382 20.9743L26.5448 21.1462L26.7109 21.333L26.877 21.5199L27.0704 21.348L26.9043 21.1611ZM26.7109 21.333L26.545 21.146C25.2319 22.3117 23.2059 22.2794 21.9358 21.0736L21.7637 21.2549L21.5915 21.4362C23.0505 22.8214 25.3704 22.8574 26.8769 21.52L26.7109 21.333ZM21.7637 21.2549L21.9362 21.0739L21.8942 21.0339L21.7217 21.2148L21.5492 21.3958L21.5912 21.4358L21.7637 21.2549ZM21.7217 21.2148L21.8938 21.0336C20.8654 20.057 19.2309 20.0313 18.169 20.9742L18.335 21.1611L18.5009 21.3481C19.3693 20.5771 20.71 20.5989 21.5495 21.3961L21.7217 21.2148ZM18.335 21.1611L18.1693 20.9739L17.975 21.1457L18.1406 21.333L18.3062 21.5203L18.5006 21.3484L18.335 21.1611ZM18.1406 21.333L17.9747 21.146C16.6616 22.3117 14.6355 22.2796 13.3655 21.0736L13.1934 21.2549L13.0212 21.4362C14.4802 22.8216 16.8 22.8574 18.3066 21.52L18.1406 21.333ZM13.1934 21.2549L13.3658 21.0738L13.3248 21.0348L13.1523 21.2158L12.9799 21.3969L13.0209 21.4359L13.1934 21.2549ZM13.1523 21.2158L13.3245 21.0345C12.2955 20.0574 10.6609 20.0313 9.59869 20.9742L9.76465 21.1611L9.93061 21.3481C10.7991 20.5772 12.1399 20.5992 12.9802 21.3971L13.1523 21.2158ZM9.76465 21.1611L9.59903 20.9739L9.40469 21.1457L9.57031 21.333L9.73594 21.5203L9.93027 21.3484L9.76465 21.1611ZM9.57031 21.333L9.4043 21.1461C8.76344 21.7152 7.95181 21.9999 7.13961 22L7.13965 22.25L7.13969 22.5C8.06794 22.4998 8.99936 22.1744 9.73632 21.5199L9.57031 21.333ZM7.13965 22.25V22C6.28998 22 5.44352 21.6895 4.79523 21.0736L4.62305 21.2549L4.45086 21.4361C5.19727 22.1452 6.16916 22.5 7.13965 22.5V22.25ZM4.62305 21.2549L4.79546 21.0738L4.75445 21.0348L4.58203 21.2158L4.40962 21.3969L4.45063 21.4359L4.62305 21.2549ZM4.58203 21.2158L4.75416 21.0345C3.72517 20.0576 2.09059 20.0313 1.02837 20.9742L1.19434 21.1611L1.3603 21.3481C2.22875 20.5772 3.56956 20.5993 4.4099 21.3971L4.58203 21.2158ZM1.19434 21.1611L1.02824 20.9743C0.901215 21.0872 0.697454 21.08 0.579401 20.9602L0.401367 21.1357L0.223333 21.3113C0.528486 21.6208 1.0348 21.6375 1.36044 21.348L1.19434 21.1611ZM0.401367 21.1357L0.579531 20.9604C0.469065 20.8481 0.474201 20.6769 0.593775 20.5707L0.427734 20.3838L0.261694 20.1969C-0.0706885 20.4922 -0.0890916 20.9939 0.223203 21.3111L0.401367 21.1357ZM0.427734 20.3838L0.593711 20.5707C1.90677 19.405 3.9329 19.4373 5.20285 20.6432L5.375 20.4619L5.54715 20.2806C4.08826 18.8953 1.76831 18.8593 0.261758 20.1968L0.427734 20.3838ZM5.375 20.4619L5.20259 20.6429L5.2436 20.682L5.41602 20.501L5.58843 20.3199L5.54741 20.2809L5.375 20.4619ZM5.41602 20.501L5.24387 20.6823C6.27293 21.6594 7.90845 21.6859 8.97069 20.7426L8.80469 20.5557L8.63869 20.3687C7.77028 21.1399 6.4286 21.1177 5.58816 20.3197L5.41602 20.501ZM8.80469 20.5557L8.9713 20.742L9.16466 20.5692L8.99805 20.3828L8.83143 20.1964L8.63807 20.3693L8.80469 20.5557ZM8.99805 20.3828L9.16403 20.5698C10.4768 19.4042 12.5033 19.437 13.7731 20.6432L13.9453 20.4619L14.1175 20.2807C12.6589 18.8952 10.3384 18.8584 8.83206 20.1959L8.99805 20.3828ZM13.9453 20.4619L13.7729 20.6429L13.8139 20.682L13.9863 20.501L14.1587 20.3199L14.1177 20.2809L13.9453 20.4619ZM13.9863 20.501L13.8142 20.6823C14.8434 21.6594 16.4788 21.6858 17.541 20.7426L17.375 20.5557L17.209 20.3687C16.3406 21.1398 14.999 21.1177 14.1585 20.3197L13.9863 20.501ZM17.375 20.5557L17.5411 20.7425L17.7344 20.5706L17.5684 20.3838L17.4023 20.1969L17.2089 20.3688L17.375 20.5557ZM17.5684 20.3838L17.7343 20.5707C19.0472 19.4051 21.0734 19.4372 22.3435 20.6432L22.5156 20.4619L22.6878 20.2806C21.2288 18.8952 18.9087 18.8594 17.4024 20.1968L17.5684 20.3838ZM22.5156 20.4619L22.3431 20.6428L22.3851 20.6829L22.5576 20.502L22.7301 20.321L22.6881 20.281L22.5156 20.4619ZM22.5576 20.502L22.3855 20.6833C23.4141 21.6597 25.0486 21.6846 26.1103 20.7416L25.9443 20.5547L25.7783 20.3678C24.91 21.139 23.5693 21.1177 22.7297 20.3206L22.5576 20.502ZM25.9443 20.5547L26.11 20.742L26.3043 20.5701L26.1387 20.3828L25.973 20.1955L25.7787 20.3674L25.9443 20.5547Z" fill="#3E3E3E"/>
</svg>
