<svg width="27" height="23" viewBox="0 0 27 23" fill="none" xmlns="http://www.w3.org/2000/svg">
<path d="M0.979736 18.2154C0.59458 18.2154 0.300049 17.9311 0.300049 17.5592V0.956055C0.300049 0.58418 0.59458 0.299805 0.979736 0.299805H25.9696C26.3547 0.299805 26.6493 0.58418 26.6493 0.956055V17.5592C26.6493 17.9967 26.3321 18.2154 26.0149 18.2154H0.979736ZM1.65942 17.0123H25.3352V1.65605H1.65942V17.0123Z" fill="#3E3E3E" stroke="#3E3E3E" stroke-width="0.6"/>
<path d="M19.7619 15.2188C19.3767 15.2188 19.0822 14.9344 19.0822 14.5625C19.0822 14.1906 19.3767 13.9062 19.7619 13.9062H22.4126C22.7978 13.9062 23.0923 14.1906 23.0923 14.5625C23.0923 14.9344 22.7298 15.2188 22.4126 15.2188H19.7619ZM13.4861 21.2781C13.1009 21.2781 12.8064 20.9937 12.8064 20.6219V17.8438C12.8064 17.4719 13.1009 17.1875 13.4861 17.1875C13.8712 17.1875 14.1658 17.4719 14.1658 17.8438V20.6656C14.1431 20.9937 13.8486 21.2781 13.4861 21.2781Z" fill="#3E3E3E" stroke="#3E3E3E" stroke-width="0.6"/>
<path d="M7.9353 21.8467C7.55015 21.8467 7.25562 21.5623 7.25562 21.1904C7.25562 20.8186 7.55015 20.5342 7.9353 20.5342H19.0595C19.4447 20.5342 19.7392 20.8186 19.7392 21.1904C19.7392 21.5623 19.3767 21.8467 19.0595 21.8467H7.9353Z" fill="#3E3E3E" stroke="#3E3E3E" stroke-width="0.6"/>
</svg>
