<svg width="27" height="21" viewBox="0 0 27 21" fill="none" xmlns="http://www.w3.org/2000/svg">
<path d="M21.367 11.5272C21.0937 11.5281 20.8299 11.4236 20.6288 11.2343C18.6286 9.40108 16.0378 8.38728 13.3528 8.38728C10.6677 8.38728 8.07696 9.40108 6.07673 11.2343C5.96601 11.3356 5.83684 11.4136 5.69663 11.4638C5.55641 11.5141 5.40789 11.5355 5.25958 11.5269C5.11126 11.5183 4.96605 11.4799 4.83227 11.4137C4.69848 11.3476 4.57875 11.2552 4.47991 11.1418C4.28545 10.9091 4.18761 10.6081 4.20733 10.3026C4.22703 9.99724 4.36271 9.71188 4.58536 9.50761C6.99193 7.291 10.1151 6.06445 13.3528 6.06445C16.5906 6.06445 19.7137 7.291 22.1202 9.50761C22.3428 9.71188 22.4786 9.99724 22.4982 10.3026C22.5179 10.6081 22.4201 10.9091 22.2256 11.1418C22.1155 11.262 21.9825 11.3584 21.8349 11.4247C21.6874 11.4908 21.5282 11.5258 21.367 11.5272Z" fill="black"/>
<path d="M25.3592 7.22534C25.0745 7.22391 24.8006 7.11399 24.5909 6.91704C21.5457 3.94631 17.4999 2.28911 13.2927 2.28911C9.08555 2.28911 5.0398 3.94631 1.9945 6.91704C1.89081 7.04321 1.76196 7.14524 1.61658 7.21626C1.47121 7.28732 1.31267 7.32571 1.15161 7.32894C0.990538 7.33203 0.830676 7.29996 0.682729 7.23475C0.534783 7.16946 0.402187 7.0726 0.29383 6.9506C0.185458 6.82863 0.10384 6.68433 0.0544439 6.52742C0.00503309 6.37049 -0.0110107 6.20458 0.00739786 6.04079C0.0257913 5.877 0.0782 5.71914 0.161099 5.57778C0.244012 5.43642 0.355488 5.31485 0.488069 5.22121C3.94649 1.86856 8.529 0 13.2927 0C18.0563 0 22.6389 1.86856 26.0974 5.22121C26.2622 5.37741 26.3777 5.58035 26.4292 5.8041C26.4809 6.02784 26.4661 6.26222 26.3869 6.47733C26.3076 6.69244 26.1676 6.8785 25.9845 7.01175C25.8015 7.14498 25.5838 7.21936 25.3592 7.22534Z" fill="black"/>
<path d="M9.36085 15.9203C9.18544 15.9203 9.01245 15.8785 8.85557 15.7982C8.69868 15.718 8.56223 15.6015 8.45699 15.4578C8.366 15.3371 8.29958 15.1989 8.26164 15.0516C8.22369 14.9042 8.215 14.7505 8.23606 14.5997C8.25712 14.4488 8.30752 14.3037 8.38427 14.1731C8.46103 14.0424 8.56259 13.9289 8.68295 13.839C10.0128 12.7976 11.6407 12.2334 13.3152 12.2334C14.9898 12.2334 16.6176 12.7976 17.9475 13.839C18.0662 13.9302 18.1662 14.0444 18.2418 14.175C18.3173 14.3056 18.367 14.4503 18.3881 14.6006C18.409 14.7509 18.4009 14.9039 18.364 15.0511C18.3273 15.1982 18.2625 15.3363 18.1734 15.4578C17.9913 15.6998 17.7239 15.8594 17.4285 15.9026C17.1331 15.9457 16.8327 15.8691 16.5917 15.689C15.6499 14.9552 14.499 14.5576 13.3152 14.5576C12.1315 14.5576 10.9804 14.9552 10.0387 15.689C9.84171 15.8363 9.60478 15.9171 9.36085 15.9203Z" fill="black"/>
<path d="M13.3078 20.7148C13.0082 20.7148 12.7207 20.5931 12.5089 20.3761C12.297 20.1594 12.178 19.8652 12.178 19.5586C12.178 19.252 12.297 18.9578 12.5089 18.741C12.7207 18.5241 13.0082 18.4023 13.3078 18.4023C13.6074 18.4023 13.8949 18.5241 14.1067 18.741C14.3186 18.9578 14.4376 19.252 14.4376 19.5586C14.4376 19.8652 14.3186 20.1594 14.1067 20.3761C13.8949 20.5931 13.6074 20.7148 13.3078 20.7148Z" fill="black"/>
</svg>
